<svg xmlns="http://www.w3.org/2000/svg" viewBox="0 0 152.76 147.05"><defs><style>.cls-1{fill:#0a0a0a;stroke:#fff;stroke-miterlimit:10;}</style></defs><g id="Layer_2" data-name="Layer 2"><g id="Layer_1-2" data-name="Layer 1"><path class="cls-1" d="M18.91,117.84c.11,5.42-6.49,12.54-6.49,12.54s-4.51,5.49-9.94.21,2-15.55,2-15.55,3-4.36,10.48-4.52C15,110.52,18.8,112.41,18.91,117.84Z"/><path class="cls-1" d="M133.54,115.4c.11,5.43,7,12.26,7,12.26s4.74,5.29,9.94-.21S147.8,112,147.8,112s-3.22-4.24-10.66-4.08C137.14,107.92,133.43,110,133.54,115.4Z"/><path class="cls-1" d="M136.08,79.16s-.58,7.52-6.08,11.16-10.58-6.16-10.58-6.16-9.83,0-2.46,13.78.36,23.92.36,23.92-4.5,4.51-8.9,5.91c0,0,7.44,11.91-2.33,12.1,0,0-14,17-14.52-6.78,0,0-11.23,1.61-15.07-1.81-3.68,3.57-15,2.41-15,2.41C62.05,157.43,47.3,141,47.3,141c-9.77.19-2.87-12-2.87-12-4.45-1.22-9.15-5.55-9.15-5.55s-7.47-9.89-.7-23.91-3.1-13.68-3.1-13.68-4.62,10-10.28,6.58-6.59-10.92-6.59-10.92c-10.1.2-2.28-16.34-2.28-16.34S9.44,49.88,15.47,49.4s5.78,3.12,8.58,4.81,3.85-.68,3.59-1.57c-1.14-3.72-8.1-7.74-3-15.19S43.83,24.4,43.83,24.4c14.55-.29,13.65,18.07,13.65,18.07,3.15,1,5.52,6.46,4.5,10.75-.54,2.31-4.32,8.49-6.84,8.54s-4.37-2.59-6-2.94A4.75,4.75,0,0,0,43.94,61S42.81,62.28,43.7,66c1.4,5.82,5.93,5.54,10.75,8.14,3.43,1.86,2.42,9.52,8.43,11.55s4.06-8.82,5.26-11.82c1-2.46,4.9-2.65,7-2.81h0c2.11.06,6,.11,7.11,2.53,1.33,3-.12,13.86,5.78,11.6S92.61,75.34,96,73.35c4.7-2.79,9.24-2.69,10.37-8.56.74-3.77-.46-5.05-.46-5.05a4.78,4.78,0,0,0-5.26-1.93c-1.63.4-3.39,3.13-5.88,3.18s-6.58-6-7.23-8.27c-1.2-4.25.92-9.78,4-10.92,0,0-1.73-18.31,12.83-18.6,0,0,14.38,5,19.78,12.28S122.75,47,121.79,50.8c-.24.89.92,3.23,3.64,1.42s2.3-5.37,8.37-5.14,3.83,15.66,3.83,15.66S146.18,79,136.08,79.16Z"/><path class="cls-1" d="M58,.5s2.93.38,4.64,8.15-1.36,8-1.36,8-5.55,2.41-6.76-3.85c0,0-8.12,1.37-6-4.5C49.83,4.52,52.83.6,58,.5Z"/><path class="cls-1" d="M88.73.8s-2.91.49-4.27,8.33,1.71,7.92,1.71,7.92,5.65,2.19,6.58-4.11c0,0,8.18,1.05,5.82-4.73C97.06,4.49,93.89.69,88.73.8Z"/></g></g></svg>